<svg width="30.000000" height="30.000000" viewBox="0 0 30 30" fill="none" xmlns="http://www.w3.org/2000/svg" xmlns:xlink="http://www.w3.org/1999/xlink">
	<desc>
			Created with Pixso.
	</desc>
	<defs/>
	<rect id="Rectangle 63" rx="6.000000" width="30.000000" height="30.000000" fill="#13390D" fill-opacity="1.000000"/>
	<path id="K." d="M8.70947 9.22583L8.70947 20.6782C8.70947 21.2305 9.15723 21.6782 9.70947 21.6782L10.7612 21.6782C11.3135 21.6782 11.7612 21.2305 11.7612 20.6782L11.7612 9.22583C11.7612 8.67358 11.3135 8.22583 10.7612 8.22583L9.70947 8.22583C9.15723 8.22583 8.70947 8.67358 8.70947 9.22583ZM14.7139 8.90771L12.7393 14.7905C12.6665 15.0068 12.6699 15.2417 12.749 15.4558L14.8091 21.0251C14.9546 21.4175 15.3286 21.6782 15.7471 21.6782L16.6104 21.6782C17.3042 21.6782 17.7871 20.9888 17.5503 20.3367L15.7754 15.4519C15.6987 15.2402 15.6953 15.0085 15.7666 14.7949L17.5137 9.54126C17.729 8.89404 17.2471 8.22583 16.5645 8.22583L15.6616 8.22583C15.2319 8.22583 14.8506 8.50024 14.7139 8.90771ZM19.8555 19.0454C19.293 19.3271 19.0112 19.7563 19.0112 20.333C19.0112 20.5635 19.0762 20.7876 19.2061 21.0056C19.4946 21.5181 19.9707 21.7742 20.6348 21.7742C20.8945 21.7742 21.147 21.7166 21.3921 21.6013C21.9692 21.345 22.2578 20.9221 22.2578 20.333C22.2578 20.0767 22.1929 19.8396 22.063 19.6218C21.7603 19.1221 21.2837 18.8723 20.6348 18.8723C20.3604 18.8723 20.1006 18.9299 19.8555 19.0454Z" fill="#FFFFFF" fill-opacity="1.000000" fill-rule="evenodd"/>
</svg>
